<?xml version="1.0" encoding="UTF-8"?>
<svg width="22px" height="20px" viewBox="0 0 22 20" version="1.1" xmlns="http://www.w3.org/2000/svg" xmlns:xlink="http://www.w3.org/1999/xlink">
    <!-- Generator: Sketch 43.1 (39012) - http://www.bohemiancoding.com/sketch -->
    <title>btn-收藏2</title>
    <desc>Created with Sketch.</desc>
    <defs></defs>
    <g id="切片" stroke="none" stroke-width="1" fill="none" fill-rule="evenodd">
        <g id="btn-收藏2" stroke="#A5A5A5">
            <path d="M15.7573419,4.5539117 C16.0155933,4.67717604 16.310125,4.88382963 16.58434,5.15513163 C17.4218789,5.98377343 17.7050425,7.098219 17.3512456,8.49724954 C17.3527659,8.49123793 17.3269196,8.50589386 17.288177,8.49791659 C17.2653514,8.4932167 17.2705831,8.50072878 17.2644631,8.5249292 C17.6231651,7.10650218 17.3449318,5.95167846 16.4871704,5.10302907 C16.2499562,4.86833481 15.9902166,4.67734398 15.7573419,4.5539117 Z" id="已关注"></path>
            <path d="M11.000175,18.3819763 C10.959635,18.3520671 10.9158,18.3195952 10.8687935,18.2846181 C10.5308115,18.0331285 10.1538298,17.7444838 9.74765489,17.4232598 C8.58714671,16.5054702 7.42673977,15.5117961 6.34523132,14.4794846 C4.87059671,13.0719298 3.66265502,11.7053241 2.8159677,10.4291208 C1.95420095,9.13018838 1.5,7.97150021 1.5,7 C1.5,3.78309379 3.7747812,1.5 7,1.5 C8.16697673,1.5 9.65849593,2.26614463 10.6297946,3.33607727 L11,3.74387655 L11.3702054,3.33607727 C12.3415041,2.26614463 13.8330233,1.5 15,1.5 C18.2252188,1.5 20.5,3.78309379 20.5,7 C20.5,7.96854141 20.0504553,9.12154755 19.1971258,10.4130659 C18.3499767,11.6952301 17.1372486,13.0684953 15.6548541,14.4827879 C14.5733778,15.5145807 13.4130027,16.5074943 12.2525267,17.4243855 C11.8463636,17.7452947 11.4693936,18.0336295 11.131423,18.2848272 C11.0844678,18.3197269 11.0406774,18.3521289 11.000175,18.3819763 Z" id="已关注"></path>
        </g>
    </g>
</svg>