<?xml version="1.0" encoding="UTF-8"?>
<svg width="20px" height="20px" viewBox="0 0 20 20" version="1.1" xmlns="http://www.w3.org/2000/svg" xmlns:xlink="http://www.w3.org/1999/xlink">
    <!-- Generator: Sketch 43.1 (39012) - http://www.bohemiancoding.com/sketch -->
    <title>会诊-消息-收起</title>
    <desc>Created with Sketch.</desc>
    <defs></defs>
    <g id="切片" stroke="none" stroke-width="1" fill="none" fill-rule="evenodd">
        <g id="会诊-消息-收起" fill="#FFFFFF">
            <path d="M9.66733966,17 L6.49936667,18.8290301 L5.44337567,17 L4.9947834,17 C2.78852545,17 1,15.2111696 1,13.0037973 L1,4.99620271 C1,2.78916089 2.79171562,1 4.9947834,1 L15.0052166,1 C17.2114745,1 19,2.78883037 19,4.99620271 L19,13.0037973 C19,15.2108391 17.2082844,17 15.0052166,17 L9.66733966,17 Z M5,11 C5.82842712,11 6.5,10.3284271 6.5,9.5 C6.5,8.67157288 5.82842712,8 5,8 C4.17157288,8 3.5,8.67157288 3.5,9.5 C3.5,10.3284271 4.17157288,11 5,11 Z M10,11 C10.8284271,11 11.5,10.3284271 11.5,9.5 C11.5,8.67157288 10.8284271,8 10,8 C9.17157288,8 8.5,8.67157288 8.5,9.5 C8.5,10.3284271 9.17157288,11 10,11 Z M15,11 C15.8284271,11 16.5,10.3284271 16.5,9.5 C16.5,8.67157288 15.8284271,8 15,8 C14.1715729,8 13.5,8.67157288 13.5,9.5 C13.5,10.3284271 14.1715729,11 15,11 Z" id="Combined-Shape"></path>
        </g>
    </g>
</svg>