<?xml version="1.0" encoding="UTF-8"?>
<svg width="42px" height="42px" viewBox="0 0 42 42" version="1.1" xmlns="http://www.w3.org/2000/svg" xmlns:xlink="http://www.w3.org/1999/xlink">
    <!-- Generator: Sketch 43.1 (39012) - http://www.bohemiancoding.com/sketch -->
    <title>会诊室_会诊报告</title>
    <desc>Created with Sketch.</desc>
    <defs></defs>
    <g id="切片" stroke="none" stroke-width="1" fill="none" fill-rule="evenodd">
        <g id="会诊室_会诊报告" fill="#2DCC98">
            <path d="M18,12 L14.9940603,12 C13.8945138,12 13,12.8932319 13,13.9950893 L13,28.0049107 C13,29.1073772 13.8927712,30 14.9940603,30 L27.0059397,30 C28.1054862,30 29,29.1067681 29,28.0049107 L29,13.9950893 C29,12.8926228 28.1072288,12 27.0059397,12 L24,12 C24,11.4438648 23.5564136,11 23.009222,11 L18.990778,11 C18.4509752,11 18,11.4477153 18,12 Z M21,41 C9.954305,41 1,32.045695 1,21 C1,9.954305 9.954305,1 21,1 C32.045695,1 41,9.954305 41,21 C41,32.045695 32.045695,41 21,41 Z M17,16 C17,15.4477153 17.4530363,15 17.9970301,15 L24.0029699,15 C24.5536144,15 25,15.4438648 25,16 C25,16.5522847 24.5469637,17 24.0029699,17 L17.9970301,17 C17.4463856,17 17,16.5561352 17,16 Z M17,21 C17,20.4477153 17.4530363,20 17.9970301,20 L24.0029699,20 C24.5536144,20 25,20.4438648 25,21 C25,21.5522847 24.5469637,22 24.0029699,22 L17.9970301,22 C17.4463856,22 17,21.5561352 17,21 Z M17,26 C17,25.4477153 17.4530363,25 17.9970301,25 L24.0029699,25 C24.5536144,25 25,25.4438648 25,26 C25,26.5522847 24.5469637,27 24.0029699,27 L17.9970301,27 C17.4463856,27 17,26.5561352 17,26 Z" id="会诊报告"></path>
        </g>
    </g>
</svg>