<?xml version="1.0" encoding="UTF-8"?>
<svg width="26px" height="26px" viewBox="0 0 26 26" version="1.1" xmlns="http://www.w3.org/2000/svg" xmlns:xlink="http://www.w3.org/1999/xlink">
    <!-- Generator: Sketch 43.1 (39012) - http://www.bohemiancoding.com/sketch -->
    <title>左侧导航栏_数据</title>
    <desc>Created with Sketch.</desc>
    <defs></defs>
    <g id="切片" stroke="none" stroke-width="1" fill="none" fill-rule="evenodd" stroke-linecap="round">
        <g id="左侧导航栏_数据" stroke="#FFFFFF" stroke-width="2">
            <g id="Group-4" transform="translate(2.000000, 2.000000)">
                <path d="M0,11 C0,17.0751322 4.92486775,22 11,22 L11,22 C17.0751322,22 22,17.0751322 22,11 C22,4.92486775 17.0751322,0 11,0 C7.96243388,0 5.21243388,1.23121694 3.22182541,3.22182541" id="Oval-7"></path>
                <path d="M15.2426407,15.2426407 C15.7953089,14.6899725 16.2406611,14.0299883 16.5447583,13.2966271 C16.8380983,12.5892078 17,11.813511 17,11 M15.2426407,6.75735931 C14.1568542,5.67157288 12.6568542,5 11,5 C7.6862915,5 5,7.6862915 5,11 C5,14.3137085 7.6862915,17 11,17" id="Oval-7"></path>
            </g>
        </g>
    </g>
</svg>