<?xml version="1.0" encoding="UTF-8"?>
<svg width="42px" height="42px" viewBox="0 0 42 42" version="1.1" xmlns="http://www.w3.org/2000/svg" xmlns:xlink="http://www.w3.org/1999/xlink">
    <!-- Generator: Sketch 43.1 (39012) - http://www.bohemiancoding.com/sketch -->
    <title>会诊室_投票</title>
    <desc>Created with Sketch.</desc>
    <defs></defs>
    <g id="切片" stroke="none" stroke-width="1" fill="none" fill-rule="evenodd">
        <g id="会诊室_投票" fill="#468FFF">
            <g id="投票" transform="translate(1.000000, 1.000000)">
                <path d="M20,40 C8.954305,40 0,31.045695 0,20 C0,8.954305 8.954305,0 20,0 C31.045695,0 40,8.954305 40,20 C40,31.045695 31.045695,40 20,40 Z M18,13.9918842 L18,27 L22,27 L22,13.9918842 C22,12.8933973 21.1045695,12 20,12 C18.8877296,12 18,12.8917969 18,13.9918842 Z M27,19.9973917 L27,27 L31,27 L31,19.9973917 C31,18.8958578 30.1045695,18 29,18 C27.8877296,18 27,18.8942627 27,19.9973917 Z M8,17.992017 L8,27 L12,27 L12,17.992017 C12,16.9001762 11.1045695,16 10,16 C8.88772964,16 8,16.8918564 8,17.992017 Z" id="Combined-Shape"></path>
            </g>
        </g>
    </g>
</svg>