<?xml version="1.0" encoding="UTF-8"?>
<svg width="17px" height="17px" viewBox="0 0 17 17" version="1.1" xmlns="http://www.w3.org/2000/svg" xmlns:xlink="http://www.w3.org/1999/xlink">
    <!-- Generator: Sketch 43.1 (39012) - http://www.bohemiancoding.com/sketch -->
    <title>患者卡片-未关注</title>
    <desc>Created with Sketch.</desc>
    <defs></defs>
    <g id="切片" stroke="none" stroke-width="1" fill="none" fill-rule="evenodd">
        <g id="患者卡片-未关注" stroke="#666666">
            <path d="M8.27078528,13.4119076 L4.489502,15.3624351 C3.87876512,15.6774761 3.66396794,15.5186583 3.78309508,14.8371648 L4.49940555,10.7393496 L4.54536835,10.476409 L4.35246507,10.2919134 L1.30572148,7.37796147 C0.809258428,6.90313665 0.885890724,6.66537887 1.56606708,6.56840343 L5.79367032,5.96565728 L6.05235701,5.9287753 L6.16977415,5.69533944 L8.0450993,1.96702405 C8.35832112,1.34431085 8.64170228,1.34433978 8.95490954,1.96702405 L10.8302347,5.69533944 L10.9476518,5.9287753 L11.2063385,5.96565728 L15.4339418,6.56840343 C16.1177891,6.66590225 16.1936291,6.90038342 15.6942874,7.37796147 L12.6475438,10.2919134 L12.4546405,10.476409 L12.5006033,10.7393496 L13.2169138,14.8371648 C13.3358835,15.517758 13.1201836,15.6769292 12.5105068,15.3624351 L8.72922356,13.4119076 L8.50000442,13.2936678 L8.27078528,13.4119076 Z" id="Star"></path>
        </g>
    </g>
</svg>