<?xml version="1.0" encoding="UTF-8"?>
<svg width="22px" height="22px" viewBox="0 0 22 22" version="1.1" xmlns="http://www.w3.org/2000/svg" xmlns:xlink="http://www.w3.org/1999/xlink">
    <!-- Generator: Sketch 43.1 (39012) - http://www.bohemiancoding.com/sketch -->
    <title>会诊报告</title>
    <desc>Created with Sketch.</desc>
    <defs></defs>
    <g id="切片" stroke="none" stroke-width="1" fill="none" fill-rule="evenodd">
        <g id="会诊报告" fill="#2DCC98">
            <path d="M8.81681565,3.76336313 L6.00247329,3.76336313 C5.45576096,3.76336313 5,4.2141432 5,4.7702086 L5,16.7565177 C5,17.3134144 5.44882258,17.7633631 6.00247329,17.7633631 L15.9975267,17.7633631 C16.544239,17.7633631 17,17.3125831 17,16.7565177 L17,4.7702086 C17,4.21331189 16.5511774,3.76336313 15.9975267,3.76336313 L13.3969944,3.76336313 C13.3969944,3.33883004 13.0583769,3 12.6406711,3 L9.57313902,3 C9.16107347,3 8.81681565,3.34176931 8.81681565,3.76336313 Z M0,0 L22,0 L22,22 L0,22 L0,0 Z M7.05345252,14.6870838 C7.05345252,14.1347991 7.50648883,13.6870838 8.05048266,13.6870838 L14.0564224,13.6870838 C14.6070669,13.6870838 15.0534525,14.1309486 15.0534525,14.6870838 C15.0534525,15.2393686 14.6004162,15.6870838 14.0564224,15.6870838 L8.05048266,15.6870838 C7.49983812,15.6870838 7.05345252,15.243219 7.05345252,14.6870838 Z M7.05345252,10.6870838 C7.05345252,10.1347991 7.50648883,9.68708381 8.05048266,9.68708381 L14.0564224,9.68708381 C14.6070669,9.68708381 15.0534525,10.1309486 15.0534525,10.6870838 C15.0534525,11.2393686 14.6004162,11.6870838 14.0564224,11.6870838 L8.05048266,11.6870838 C7.49983812,11.6870838 7.05345252,11.243219 7.05345252,10.6870838 Z M7.05345252,6.68708381 C7.05345252,6.13479906 7.50648883,5.68708381 8.05048266,5.68708381 L14.0564224,5.68708381 C14.6070669,5.68708381 15.0534525,6.13094864 15.0534525,6.68708381 C15.0534525,7.23936856 14.6004162,7.68708381 14.0564224,7.68708381 L8.05048266,7.68708381 C7.49983812,7.68708381 7.05345252,7.24321899 7.05345252,6.68708381 Z"></path>
        </g>
    </g>
</svg>