<?xml version="1.0" encoding="UTF-8"?>
<svg width="22px" height="20px" viewBox="0 0 22 20" version="1.1" xmlns="http://www.w3.org/2000/svg" xmlns:xlink="http://www.w3.org/1999/xlink">
    <!-- Generator: Sketch 43.1 (39012) - http://www.bohemiancoding.com/sketch -->
    <title>btn-收藏</title>
    <desc>Created with Sketch.</desc>
    <defs></defs>
    <g id="切片" stroke="none" stroke-width="1" fill="none" fill-rule="evenodd">
        <g id="btn-收藏" fill="#468FFF">
            <path d="M7,1 C8.37288773,1 9.98641245,1.88348407 11,3 C12.0135875,1.88348407 13.6271123,1 15,1 C18.5126931,1 21,3.51832156 21,7 C21,11.9188092 11,19 11,19 C11,19 1,11.909783 1,7 C1,3.51832156 3.48730695,1 7,1 Z M15.3950608,4.93548744 C15.5620197,5.00254623 15.8465364,5.17256148 16.13551,5.45846532 C16.8196611,6.1353487 17.1132001,7.08366501 16.7797229,8.40234464 C16.7131647,8.66553791 16.8956611,8.9275849 17.1873401,8.98764295 C17.479019,9.04770101 17.7694276,8.88302738 17.8359858,8.6198341 C18.2498017,6.98346814 17.855412,5.70934004 16.9360004,4.79969538 C16.5346684,4.40262676 16.1288796,4.16014435 15.8356347,4.04236298 C15.5623122,3.9325834 15.2421148,4.04352219 15.1204537,4.29015171 C14.9987925,4.53678122 15.1217383,4.82570787 15.3950608,4.93548744 Z" id="已关注"></path>
        </g>
    </g>
</svg>