<?xml version="1.0" encoding="UTF-8"?>
<svg width="34px" height="14px" viewBox="0 0 34 14" version="1.1" xmlns="http://www.w3.org/2000/svg" xmlns:xlink="http://www.w3.org/1999/xlink">
    <!-- Generator: Sketch 43.1 (39012) - http://www.bohemiancoding.com/sketch -->
    <title>新消息</title>
    <desc>Created with Sketch.</desc>
    <defs></defs>
    <g id="切片" stroke="none" stroke-width="1" fill="none" fill-rule="evenodd">
        <g id="新消息" fill="#FF6368">
            <path d="M0,0 L34,0 L29,7 L34,14 L0,14 L0,0 Z M5.62,4.384 L4.804,4.384 C4.82000008,4.59200104 4.83399994,4.81199884 4.846,5.044 C4.85800006,5.27600116 4.864,5.46799924 4.864,5.62 L4.864,10 L5.656,10 L5.656,7.12 C5.656,6.60799744 5.7359992,6.20800144 5.896,5.92 C6.0560008,5.63199856 6.23799898,5.41600072 6.442,5.272 C6.64600102,5.12799928 6.83999908,5.04000016 7.024,5.008 C7.20800092,4.97599984 7.3199998,4.96 7.36,4.96 C7.94400292,4.96 8.34399892,5.12599834 8.56,5.458 C8.77600108,5.79000166 8.884,6.26799688 8.884,6.892 L8.884,10 L9.676,10 L9.676,6.436 C9.676,5.73199648 9.50400172,5.1900019 9.16,4.81 C8.81599828,4.4299981 8.2840036,4.24 7.564,4.24 C7.37999908,4.24 7.19400094,4.26599974 7.006,4.318 C6.81799906,4.37000026 6.64000084,4.44199954 6.472,4.534 C6.30399916,4.62600046 6.15200068,4.73599936 6.016,4.864 C5.87999932,4.99200064 5.76800044,5.13199924 5.68,5.284 L5.656,5.284 C5.656,5.13199924 5.65400002,4.98200074 5.65,4.834 C5.64599998,4.68599926 5.63600008,4.53600076 5.62,4.384 Z M12.088,7.408 L16.768,7.408 L16.768,7.048 C16.768,6.66399808 16.7080006,6.3020017 16.588,5.962 C16.4679994,5.6219983 16.2940011,5.32600126 16.066,5.074 C15.8379989,4.82199874 15.5560017,4.62000076 15.22,4.468 C14.8839983,4.31599924 14.5040021,4.24 14.08,4.24 C13.679998,4.24 13.3080017,4.31399926 12.964,4.462 C12.6199983,4.61000074 12.3200013,4.81599868 12.064,5.08 C11.8079987,5.34400132 11.6080007,5.6559982 11.464,6.016 C11.3199993,6.3760018 11.248,6.76799788 11.248,7.192 C11.248,7.61600212 11.3219993,8.0079982 11.47,8.368 C11.6180007,8.7280018 11.8199987,9.03999868 12.076,9.304 C12.3320013,9.56800132 12.6379982,9.77399926 12.994,9.922 C13.3500018,10.0700007 13.7359979,10.144 14.152,10.144 C14.6160023,10.144 15.049998,10.0520009 15.454,9.868 C15.858002,9.68399908 16.2279983,9.38000212 16.564,8.956 L15.952,8.452 C15.7919992,8.70800128 15.5580015,8.93399902 15.25,9.13 C14.9419985,9.32600098 14.5760021,9.424 14.152,9.424 C13.8719986,9.424 13.6120012,9.37200052 13.372,9.268 C13.1319988,9.16399948 12.9200009,9.0220009 12.736,8.842 C12.5519991,8.6619991 12.4040006,8.44800124 12.292,8.2 C12.1799994,7.95199876 12.1120001,7.6880014 12.088,7.408 Z M18.448,4.384 L17.512,4.384 L19.288,10 L20.176,10 L21.664,5.392 L21.688,5.392 L23.176,10 L24.064,10 L25.84,4.384 L24.904,4.384 L23.608,8.944 L23.584,8.944 L22.084,4.384 L21.268,4.384 L19.768,8.944 L19.744,8.944 L18.448,4.384 Z M15.904,6.76 L12.112,6.76 C12.112,6.52799884 12.1659995,6.30400108 12.274,6.088 C12.3820005,5.87199892 12.5259991,5.68000084 12.706,5.512 C12.8860009,5.34399916 13.0959988,5.2100005 13.336,5.11 C13.5760012,5.0099995 13.8239987,4.96 14.08,4.96 C14.6560029,4.96 15.1039984,5.12599834 15.424,5.458 C15.7440016,5.79000166 15.904,6.22399732 15.904,6.76 Z" id="Combined-Shape"></path>
        </g>
    </g>
</svg>