<?xml version="1.0" encoding="UTF-8"?>
<svg width="4px" height="8px" viewBox="0 0 4 8" version="1.1" xmlns="http://www.w3.org/2000/svg" xmlns:xlink="http://www.w3.org/1999/xlink">
    <!-- Generator: Sketch 43.1 (39012) - http://www.bohemiancoding.com/sketch -->
    <title>聊天框-他人</title>
    <desc>Created with Sketch.</desc>
    <defs>
        <path d="M71,0.504882923 L71,-5.99997447 C71,-8.20357524 69.208162,-10 66.9978179,-10 L5.00218213,-10 C2.80069104,-10 1,-8.20912757 1,-5.99997447 L1,25.9999745 C1,28.2035752 2.79183797,30 5.00218213,30 L66.9978179,30 C69.199309,30 71,28.2091276 71,25.9999745 L71,7.49427499 L73.6989929,4.74487085 C74.097603,4.33881555 74.1030591,3.66590041 73.6989929,3.25428706 L71,0.504882923 Z" id="path-1"></path>
    </defs>
    <g id="切片" stroke="none" stroke-width="1" fill="none" fill-rule="evenodd">
        <g id="聊天框-他人">
            <g id="Combined-Shape" transform="translate(37.500000, 10.000000) scale(-1, 1) translate(-37.500000, -10.000000) ">
                <use fill="#FFFFFF" fill-rule="evenodd" xlink:href="#path-1"></use>
                <path stroke="#DFDFDF" stroke-width="0.5" d="M70.75,0.504882923 L70.8215953,0.680016497 L73.5205882,3.42942063 C73.8271223,3.74168015 73.8258182,4.25880626 73.5205882,4.56973728 L70.8215953,7.31914142 L70.75,7.49427499 L70.75,25.9999745 C70.75,28.0678893 69.0644109,29.75 66.9978179,29.75 L5.00218213,29.75 C2.93184945,29.75 1.25,28.0674451 1.25,25.9999745 L1.25,-5.99997447 C1.25,-8.06788935 2.93558915,-9.75 5.00218213,-9.75 L66.9978179,-9.75 C69.0681506,-9.75 70.75,-8.06744513 70.75,-5.99997447 L70.75,0.504882923 Z"></path>
            </g>
        </g>
    </g>
</svg>